<svg width="200" height="100" viewBox="0 0 200 100" fill="none" xmlns="http://www.w3.org/2000/svg">
<g clip-path="url(#clip0_161_207)">
<path d="M55.7704 70.3893L63.5536 83.9208L55.7704 97.4707H40.1857L32.4135 83.9208L40.1857 70.3893H55.7704ZM57.2126 67.8748H38.7545L29.5219 83.9208L38.7545 99.9852H57.2126L66.4453 83.9208L57.2126 67.8748Z" fill="white"/>
<path d="M55.7704 2.51456L63.5536 16.0792L55.7704 29.6291H40.1857L32.4135 16.0792L40.1857 2.51456H55.7704ZM57.2126 0H38.7545L29.5219 16.0792L38.7545 32.14H57.2126L66.4453 16.0792L57.2126 0Z" fill="white"/>
<path d="M26.2412 19.1064L34.0318 32.671L26.2412 46.2024H10.6748L2.88797 32.671L10.6748 19.1211L26.2412 19.1064ZM27.6871 16.5918H9.22903L0 32.671L9.22903 48.7318H27.7091L36.9198 32.671L27.6871 16.5918Z" fill="white"/>
<path d="M26.2412 53.5433L34.0281 67.0932L26.2412 80.6431H10.6748L2.88797 67.0932L10.6748 53.5433H26.2412ZM27.7091 51.0325H9.22903L0 67.0932L9.22903 83.1577H27.7091L36.9381 67.0932L27.7091 51.0325Z" fill="white"/>
<path d="M86.6133 16.4185H68.1553L58.9263 32.4829L68.1553 48.5474H77.3843V46.0291H69.5974L61.8106 32.4829L69.5974 18.933H85.1675L88.3527 24.4746H91.2407L86.6133 16.4185Z" fill="#AFF000"/>
<path d="M88.0114 75.5255L85.1675 80.4735H69.5974L61.8106 66.9236L69.5974 53.3737H77.3843V50.8591H68.1553L58.9263 66.9236L68.1553 82.988H86.6133L90.8994 75.5255H88.0114Z" fill="#AFF000"/>
<path d="M93.1856 55.1619H96.4148V63.1628C96.4148 65.4192 95.9708 67.0895 95.0828 68.1734C94.1947 69.2574 92.766 69.7982 90.7967 69.7957C86.7063 69.7957 84.6611 67.6155 84.6611 63.2549V36.8963C84.6611 32.4423 86.7063 30.2153 90.7967 30.2153C94.5446 30.2153 96.4173 32.4104 96.4148 36.8004V43.6731H93.1856V36.8483C93.1856 35.8135 93.0143 35.0527 92.6719 34.5661C92.3294 34.0794 91.7043 33.8336 90.7967 33.8286C89.1136 33.8286 88.2708 34.8327 88.2683 36.841V63.1996C88.2683 65.2398 89.1111 66.2587 90.7967 66.2562C91.67 66.2562 92.2816 66.0104 92.6315 65.5188C92.9984 65.0173 93.1709 64.2468 93.1709 63.2144L93.1856 55.1619Z" fill="white"/>
<path d="M108.44 69.3606C108.034 66.32 107.612 63.3704 107.174 60.5117C106.736 57.653 106.247 54.7439 105.706 51.7844C105.567 51.8121 105.426 51.8269 105.284 51.8287H102.972V69.379H99.4128V30.665H105.284C107.535 30.665 109.213 31.1898 110.319 32.2394C111.425 33.289 111.979 35.0846 111.981 37.6262V45.3173C111.981 48.1416 111.03 50.0392 109.126 51.0101C109.75 54.1466 110.327 57.229 110.858 60.2573C111.389 63.2855 111.888 66.32 112.355 69.3606H108.44ZM108.345 38.0723C108.345 36.6589 108.143 35.6757 107.739 35.1227C107.335 34.5696 106.507 34.2869 105.255 34.2747H102.972V48.5804H105.314C106.414 48.5804 107.185 48.3223 107.655 47.8024C108.124 47.2825 108.356 46.4788 108.356 45.38L108.345 38.0723Z" fill="white"/>
<path d="M118.348 69.3607V51.9984L112.913 30.6394H116.66C116.972 31.9262 117.31 33.342 117.669 34.8979C118.029 36.4539 118.385 37.9766 118.744 39.4846C119.104 40.9926 119.423 42.379 119.706 43.6473C119.988 44.9156 120.19 45.9001 120.315 46.5969C120.44 45.9062 120.643 44.923 120.924 43.6473C121.205 42.3716 121.525 40.984 121.882 39.4846C122.241 37.9754 122.616 36.4465 123.005 34.8979C123.397 33.342 123.764 31.9262 124.106 30.6394H127.573L121.952 51.9984V69.3607H118.348Z" fill="white"/>
<path d="M129.757 69.3607V30.6467H135.753C137.999 30.6467 139.661 31.2035 140.74 32.317C141.819 33.4304 142.357 35.2101 142.354 37.6558V44.0086C142.354 46.4519 141.824 48.2241 140.762 49.3253C139.7 50.4265 138.045 50.9759 135.797 50.9734H133.316V69.3681L129.757 69.3607ZM138.843 37.6521C138.843 36.4907 138.608 35.639 138.138 35.0896C137.668 34.5402 136.876 34.2637 135.753 34.2637H133.316V47.4855H135.797C136.829 47.4855 137.595 47.2188 138.094 46.6854C138.593 46.152 138.838 45.2917 138.828 44.1044L138.843 37.6521Z" fill="white"/>
<path d="M147.929 69.3607V34.2601H143.617V30.6394H155.748V34.2601H151.44V69.3607H147.929Z" fill="white"/>
<path d="M157.994 69.3607V30.6394H168.203V34.2601H161.554V47.8616H166.236V51.4343H161.554V65.8322H168.438V69.3607H157.994Z" fill="white"/>
<path d="M180.192 69.3606C179.785 66.32 179.365 63.3704 178.929 60.5117C178.494 57.653 178.004 54.7439 177.461 51.7844C177.322 51.8121 177.181 51.8269 177.039 51.8287H174.713V69.379H171.153V30.665H177.025C179.275 30.665 180.954 31.1898 182.059 32.2394C183.165 33.289 183.719 35.0846 183.722 37.6262V45.3173C183.722 48.1416 182.77 50.0392 180.867 51.0101C181.491 54.1466 182.068 57.229 182.599 60.2573C183.13 63.2855 183.629 66.32 184.096 69.3606H180.192ZM180.1 38.0723C180.1 36.6602 179.894 35.672 179.491 35.1227C179.087 34.5733 178.254 34.2747 177.006 34.2747H174.713V48.5804H177.061C178.155 48.5804 178.935 48.3211 179.403 47.8024C179.87 47.2838 180.105 46.4763 180.107 45.38L180.1 38.0723Z" fill="white"/>
<path d="M196.441 69.3607L195.597 62.8678H189.839L188.995 69.3607H185.531L190.822 30.6467H194.987L200 69.3607H196.441ZM195.175 59.5863C194.771 56.2606 194.366 52.9742 193.96 49.7272C193.554 46.4801 193.164 43.1483 192.789 39.7316C192.381 43.1483 191.966 46.4801 191.545 49.7272C191.125 52.9742 190.7 56.2606 190.272 59.5863H195.175Z" fill="white"/>
</g>
<defs>
<clipPath id="clip0_161_207">
<rect width="200" height="100" fill="white"/>
</clipPath>
</defs>
</svg>
