<svg width="83" height="69" viewBox="0 0 83 69" fill="none" xmlns="http://www.w3.org/2000/svg">
<g clip-path="url(#clip0_151_263)">
<g filter="url(#filter0_ii_151_263)">
<path d="M75.0709 37.6626L58.2744 14.4499L24.6813 14.4499L7.88477 37.6626L24.6813 60.8752" stroke="url(#paint0_linear_151_263)"/>
</g>
<path d="M47.7128 24.1029C49.9088 24.5318 52.0489 25.2108 54.0911 26.1268C57.9615 31.899 59.8882 38.3625 59.2568 45.7859C56.8248 47.5372 54.1395 48.9059 51.2943 49.8447C50.9511 49.3401 50.6276 48.8224 50.3248 48.2927C51.0389 47.9818 51.7343 47.629 52.4073 47.2361L52.4074 47.2361L52.4161 47.2309C52.5737 47.1368 52.7056 47.0052 52.8003 46.848C52.895 46.6907 52.9495 46.5126 52.959 46.3293C52.9685 46.1459 52.9327 45.963 52.8548 45.7969C52.7769 45.6307 52.6592 45.4862 52.5122 45.3763L52.51 45.3747C52.3304 45.241 52.1507 45.0998 51.9785 44.9579L51.9751 44.955C51.8118 44.8217 51.614 44.7375 51.4048 44.7121C51.1983 44.6871 50.989 44.7205 50.8005 44.8083C45.1257 47.4284 38.9201 47.4301 33.1687 44.8053L33.1688 44.8053L33.1623 44.8024C32.9731 44.7176 32.7639 44.6874 32.5584 44.7151C32.3528 44.7428 32.1591 44.8273 31.9991 44.9591L31.9987 44.9594C31.829 45.0993 31.6487 45.2398 31.4659 45.3768L31.4659 45.3768L31.4606 45.3808C31.3144 45.4919 31.1978 45.6372 31.1212 45.8039C31.0445 45.9707 31.0101 46.1537 31.0209 46.3369C31.0317 46.5201 31.0875 46.6979 31.1834 46.8545C31.2792 47.011 31.412 47.1415 31.5702 47.2345L31.5702 47.2346L31.5769 47.2384C32.2522 47.6285 32.9485 47.9807 33.6624 48.2933C33.3615 48.8249 33.0372 49.3429 32.6906 49.846C29.8495 48.9047 27.1678 47.5361 24.7381 45.7869C24.2084 39.3404 25.4741 32.8287 29.8992 26.127C31.9433 25.2092 34.0858 24.5296 36.2844 24.1014C36.4997 24.5146 36.6993 24.936 36.8826 25.3645L37.1869 26.0761L37.9521 25.96C40.6372 25.5524 43.3684 25.5524 46.0535 25.96L46.8199 26.0763L47.1236 25.3632C47.3054 24.9363 47.502 24.516 47.7128 24.1029ZM50.6847 50.0385C50.6851 50.0384 50.6854 50.0383 50.6858 50.0382C50.6854 50.0383 50.6851 50.0384 50.6848 50.0385L50.6847 50.0385ZM51.6626 50.3703L51.6596 50.3662C51.6606 50.3676 51.6616 50.3689 51.6626 50.3703ZM31.6029 38.3963C31.6029 40.8809 33.4401 43.0988 35.9057 43.0988C38.403 43.0988 40.2049 40.8792 40.2084 38.4034C40.2403 35.9229 38.4109 33.6938 35.9057 33.6938C33.4058 33.6938 31.6029 35.9178 31.6029 38.3963ZM43.8142 38.3963C43.8142 40.8809 45.6514 43.0988 48.1169 43.0988C50.6316 43.0988 52.4162 40.8762 52.4197 38.4034C52.4516 35.9229 50.6222 33.6938 48.1169 33.6938C45.6171 33.6938 43.8142 35.9178 43.8142 38.3963Z" stroke="white" stroke-width="2"/>
</g>
<defs>
<filter id="filter0_ii_151_263" x="6.26761" y="13.95" width="73.2084" height="51.2185" filterUnits="userSpaceOnUse" color-interpolation-filters="sRGB">
<feFlood flood-opacity="0" result="BackgroundImageFix"/>
<feBlend mode="normal" in="SourceGraphic" in2="BackgroundImageFix" result="shape"/>
<feColorMatrix in="SourceAlpha" type="matrix" values="0 0 0 0 0 0 0 0 0 0 0 0 0 0 0 0 0 0 127 0" result="hardAlpha"/>
<feOffset dx="-1" dy="3"/>
<feGaussianBlur stdDeviation="2"/>
<feComposite in2="hardAlpha" operator="arithmetic" k2="-1" k3="1"/>
<feColorMatrix type="matrix" values="0 0 0 0 0.214857 0 0 0 0 0.470833 0 0 0 0 0.0137326 0 0 0 0.65 0"/>
<feBlend mode="normal" in2="shape" result="effect1_innerShadow_151_263"/>
<feColorMatrix in="SourceAlpha" type="matrix" values="0 0 0 0 0 0 0 0 0 0 0 0 0 0 0 0 0 0 127 0" result="hardAlpha"/>
<feOffset dx="5" dy="4"/>
<feGaussianBlur stdDeviation="2"/>
<feComposite in2="hardAlpha" operator="arithmetic" k2="-1" k3="1"/>
<feColorMatrix type="matrix" values="0 0 0 0 0.7125 0 0 0 0 1 0 0 0 0 0.425 0 0 0 0.25 0"/>
<feBlend mode="normal" in2="effect1_innerShadow_151_263" result="effect2_innerShadow_151_263"/>
</filter>
<linearGradient id="paint0_linear_151_263" x1="20.5423" y1="14.4499" x2="45.4518" y2="49.4129" gradientUnits="userSpaceOnUse">
<stop stop-color="#9BD700"/>
<stop offset="1" stop-color="white" stop-opacity="0"/>
</linearGradient>
<clipPath id="clip0_151_263">
<rect width="69" height="83" fill="white" transform="translate(0 69) rotate(-90)"/>
</clipPath>
</defs>
</svg>
