<svg width="83" height="69" viewBox="0 0 83 69" fill="none" xmlns="http://www.w3.org/2000/svg">
<g clip-path="url(#clip0_151_259)">
<g filter="url(#filter0_ii_151_259)">
<path d="M75.0709 37.6626L58.2744 14.4499L24.6813 14.4499L7.88477 37.6626L24.6813 60.8752" stroke="url(#paint0_linear_151_259)"/>
</g>
<g clip-path="url(#clip1_151_259)">
<path d="M53.775 24.3678L53.7764 24.3691C55.29 25.877 55.7996 27.719 55.9074 29.9959L56.9062 29.9486L55.9079 30.0053C56.0463 32.4452 56.0463 39.827 55.9079 42.267L55.9078 42.267L55.9075 42.2735C55.7932 44.5528 55.2833 46.3962 53.775 47.9045L53.7737 47.9058C52.2659 49.4194 50.4238 49.929 48.1469 50.0368L48.1469 50.0368L48.1375 50.0373C45.6976 50.1758 38.3091 50.1758 35.8692 50.0373L35.8692 50.0373L35.8626 50.0369C33.5847 49.9227 31.7463 49.4133 30.2303 47.9031C28.7167 46.3953 28.2071 44.5532 28.0993 42.2763L28.0994 42.2763L28.0988 42.267C27.9604 39.827 27.9604 32.4385 28.0988 29.9986L28.0989 29.9986L28.0992 29.992C28.2136 27.7106 28.7177 25.8693 30.2303 24.3624C31.7459 22.8526 33.5903 22.3432 35.8599 22.2354L35.8599 22.2355L35.8692 22.235C38.3091 22.0965 45.6976 22.0965 48.1375 22.235L48.1375 22.235L48.1441 22.2353C50.4234 22.3496 52.2668 22.8595 53.775 24.3678ZM51.2214 48.7644L51.2249 48.7629C52.7966 48.1327 54.0102 46.9207 54.6345 45.3519C55.1005 44.181 55.2479 42.3436 55.3 40.6706C55.3384 39.4376 55.3257 38.1744 55.3155 37.1708C55.3116 36.7811 55.308 36.4306 55.308 36.1361C55.308 35.8416 55.3116 35.4911 55.3155 35.1016C55.3257 34.0985 55.3384 32.8365 55.3 31.6041C55.2479 29.9314 55.1003 28.095 54.6349 26.9215L54.6335 26.9179C54.0032 25.3462 52.7913 24.1327 51.2224 23.5083L51.2197 23.5073C50.0505 23.0459 48.2149 22.8983 46.5417 22.8453C45.2993 22.806 44.0279 22.8182 43.0206 22.8278C42.6395 22.8315 42.2963 22.8348 42.0067 22.8348C41.7122 22.8348 41.3617 22.8312 40.9722 22.8273C39.9691 22.8172 38.7071 22.8044 37.4747 22.8428C35.802 22.8949 33.9656 23.0425 32.792 23.5079L32.792 23.5079L32.7885 23.5093C31.2168 24.1396 30.0032 25.3515 29.3789 26.9204L29.3789 26.9204L29.3778 26.9231C28.9165 28.0923 28.7689 29.9279 28.7159 31.6011C28.6766 32.8435 28.6888 34.115 28.6984 35.1222C28.7021 35.5033 28.7054 35.8466 28.7054 36.1361C28.7054 36.4307 28.7018 36.7811 28.6979 37.1706C28.6877 38.1737 28.675 39.4358 28.7134 40.6681C28.7655 42.3408 28.9131 44.1773 29.3785 45.3508L29.3799 45.3543C30.0102 46.926 31.2221 48.1396 32.791 48.7639L32.7937 48.765C33.9629 49.2263 35.7985 49.374 37.4717 49.4269C38.7141 49.4662 39.9855 49.4541 40.9928 49.4444C41.3739 49.4408 41.7171 49.4375 42.0067 49.4375C42.3012 49.4375 42.6517 49.441 43.0412 49.445C44.0443 49.4551 45.3063 49.4679 46.5387 49.4294C48.2114 49.3773 50.0478 49.2298 51.2214 48.7644ZM35.3125 36.1361C35.3125 32.4295 38.3001 29.4419 42.0067 29.4419C45.7133 29.4419 48.7009 32.4295 48.7009 36.1361C48.7009 39.8428 45.7133 42.8303 42.0067 42.8303C38.3001 42.8303 35.3125 39.8428 35.3125 36.1361ZM36.0045 36.1361C36.0045 39.4482 38.7031 42.1384 42.0067 42.1384C45.3103 42.1384 48.0089 39.4482 48.0089 36.1361C48.0089 32.8249 45.3179 30.1339 42.0067 30.1339C38.6955 30.1339 36.0045 32.8249 36.0045 36.1361ZM50.8103 28.1272C50.8103 28.5702 50.4568 28.9218 50.0156 28.9218C49.5726 28.9218 49.221 28.5684 49.221 28.1272C49.221 27.6884 49.5768 27.3326 50.0156 27.3326C50.4544 27.3326 50.8103 27.6884 50.8103 28.1272Z" stroke="white" stroke-width="2"/>
</g>
</g>
<defs>
<filter id="filter0_ii_151_259" x="6.26759" y="13.95" width="73.2084" height="51.2185" filterUnits="userSpaceOnUse" color-interpolation-filters="sRGB">
<feFlood flood-opacity="0" result="BackgroundImageFix"/>
<feBlend mode="normal" in="SourceGraphic" in2="BackgroundImageFix" result="shape"/>
<feColorMatrix in="SourceAlpha" type="matrix" values="0 0 0 0 0 0 0 0 0 0 0 0 0 0 0 0 0 0 127 0" result="hardAlpha"/>
<feOffset dx="-1" dy="3"/>
<feGaussianBlur stdDeviation="2"/>
<feComposite in2="hardAlpha" operator="arithmetic" k2="-1" k3="1"/>
<feColorMatrix type="matrix" values="0 0 0 0 0.214857 0 0 0 0 0.470833 0 0 0 0 0.0137326 0 0 0 0.65 0"/>
<feBlend mode="normal" in2="shape" result="effect1_innerShadow_151_259"/>
<feColorMatrix in="SourceAlpha" type="matrix" values="0 0 0 0 0 0 0 0 0 0 0 0 0 0 0 0 0 0 127 0" result="hardAlpha"/>
<feOffset dx="5" dy="4"/>
<feGaussianBlur stdDeviation="2"/>
<feComposite in2="hardAlpha" operator="arithmetic" k2="-1" k3="1"/>
<feColorMatrix type="matrix" values="0 0 0 0 0.7125 0 0 0 0 1 0 0 0 0 0.425 0 0 0 0.25 0"/>
<feBlend mode="normal" in2="effect1_innerShadow_151_259" result="effect2_innerShadow_151_259"/>
</filter>
<linearGradient id="paint0_linear_151_259" x1="20.5423" y1="14.4499" x2="45.4518" y2="49.4129" gradientUnits="userSpaceOnUse">
<stop stop-color="#9BD700"/>
<stop offset="1" stop-color="white" stop-opacity="0"/>
</linearGradient>
<clipPath id="clip0_151_259">
<rect width="69" height="83" fill="white" transform="translate(0 69) rotate(-90)"/>
</clipPath>
<clipPath id="clip1_151_259">
<rect width="30" height="34.2857" fill="white" transform="translate(27 19)"/>
</clipPath>
</defs>
</svg>
