<svg width="25" height="25" viewBox="0 0 25 25" fill="none" xmlns="http://www.w3.org/2000/svg">
<g clip-path="url(#clip0_192_27)">
<path d="M24.2656 20.7363C25.2422 21.7129 25.2422 23.2949 24.2656 24.2715C23.7812 24.7598 23.1406 25.002 22.5 25.002C21.8594 25.002 21.2203 24.7578 20.7328 24.2695L12.5 16.041L4.26797 24.2676C3.77969 24.7598 3.13984 25.002 2.5 25.002C1.86016 25.002 1.22109 24.7598 0.732422 24.2676C-0.244141 23.291 -0.244141 21.709 0.732422 20.7324L8.9668 12.498L0.732422 4.26758C-0.244141 3.29102 -0.244141 1.70898 0.732422 0.732422C1.70898 -0.244141 3.29102 -0.244141 4.26758 0.732422L12.5 8.9707L20.7344 0.736328C21.7109 -0.240234 23.293 -0.240234 24.2695 0.736328C25.2461 1.71289 25.2461 3.29492 24.2695 4.27148L16.0352 12.5059L24.2656 20.7363Z" fill="url(#paint0_linear_192_27)"/>
</g>
<defs>
<linearGradient id="paint0_linear_192_27" x1="3.25025" y1="3.70864" x2="23.8039" y2="21.8223" gradientUnits="userSpaceOnUse">
<stop stop-color="#77B22C"/>
<stop offset="1" stop-color="#407200" stop-opacity="0.58"/>
</linearGradient>
<clipPath id="clip0_192_27">
<rect width="25" height="25" fill="white"/>
</clipPath>
</defs>
</svg>
