<svg width="29" height="34" viewBox="0 0 29 34" fill="none" xmlns="http://www.w3.org/2000/svg">
<path d="M0 6.375C0 5.2016 0.927612 4.25 2.07143 4.25H26.9286C28.0743 4.25 29 5.2016 29 6.375C29 7.55039 28.0743 8.5 26.9286 8.5H2.07143C0.927612 8.5 0 7.55039 0 6.375ZM0 17C0 15.8246 0.927612 14.875 2.07143 14.875H26.9286C28.0743 14.875 29 15.8246 29 17C29 18.1754 28.0743 19.125 26.9286 19.125H2.07143C0.927612 19.125 0 18.1754 0 17ZM26.9286 29.75H2.07143C0.927612 29.75 0 28.8004 0 27.625C0 26.4496 0.927612 25.5 2.07143 25.5H26.9286C28.0743 25.5 29 26.4496 29 27.625C29 28.8004 28.0743 29.75 26.9286 29.75Z" fill="url(#paint0_linear_160_124)"/>
<defs>
<linearGradient id="paint0_linear_160_124" x1="3.77" y1="8.03252" x2="24.9006" y2="29.2106" gradientUnits="userSpaceOnUse">
<stop stop-color="#77B22C"/>
<stop offset="1" stop-color="#407200" stop-opacity="0.58"/>
</linearGradient>
</defs>
</svg>
