<svg width="321" height="326" viewBox="0 0 321 326" fill="none" xmlns="http://www.w3.org/2000/svg">
<g filter="url(#filter0_ii_174_153)">
<g filter="url(#filter1_d_174_153)">
<ellipse cx="155.5" cy="157.903" rx="15" ry="17.5" fill="#B4FD7A" fill-opacity="0.26" shape-rendering="crispEdges"/>
</g>
<path d="M180.399 161.281C177.646 173.844 164.48 182.491 150.992 180.595C137.509 178.698 128.807 166.975 131.561 154.413C134.312 141.849 147.478 133.201 160.962 135.097C174.45 136.993 183.152 148.717 180.399 161.281L180.399 161.281L180.399 161.281Z" fill="#94CB00"/>
<path d="M166.81 153.624C167.164 150.532 164.563 149.113 161.061 148.321L161.988 144.094L159.225 143.706L158.323 147.822C157.597 147.72 156.852 147.629 156.111 147.539L157.02 143.395L154.259 143.007L153.332 147.233C152.731 147.161 152.142 147.088 151.569 147.008L151.571 146.995L147.762 146.458L147.16 149.206C147.16 149.206 149.208 149.457 149.167 149.487C150.285 149.645 150.517 150.301 150.509 150.838L149.453 155.654C149.53 155.665 149.631 155.682 149.742 155.713C149.649 155.7 149.551 155.686 149.45 155.673L147.97 162.419C147.85 162.74 147.528 163.234 146.746 163.126C146.775 163.16 144.738 162.843 144.738 162.843L143.515 165.839L147.11 166.344C147.779 166.439 148.435 166.542 149.081 166.637L148.145 170.912L150.905 171.301L151.831 167.07C152.586 167.191 153.318 167.3 154.034 167.4L153.11 171.611L155.873 171.999L156.809 167.731C161.507 168.136 164.997 167.503 166.29 163.497C167.333 160.272 166.001 158.58 163.494 157.62C165.262 157.085 166.557 155.887 166.811 153.624L166.81 153.624L166.81 153.624ZM160.942 162.223C160.243 165.418 154.45 164.229 152.577 163.967L153.819 158.303C155.692 158.566 161.673 158.89 160.942 162.223L160.942 162.223ZM161.409 154.05C160.771 156.956 155.947 155.929 154.388 155.709L155.514 150.572C157.073 150.791 162.073 151.018 161.409 154.05L161.409 154.05Z" fill="#315E18"/>
</g>
<defs>
<filter id="filter0_ii_174_153" x="128" y="132.765" width="55.9535" height="52.1624" filterUnits="userSpaceOnUse" color-interpolation-filters="sRGB">
<feFlood flood-opacity="0" result="BackgroundImageFix"/>
<feBlend mode="normal" in="SourceGraphic" in2="BackgroundImageFix" result="shape"/>
<feColorMatrix in="SourceAlpha" type="matrix" values="0 0 0 0 0 0 0 0 0 0 0 0 0 0 0 0 0 0 127 0" result="hardAlpha"/>
<feOffset dx="4" dy="2"/>
<feGaussianBlur stdDeviation="1"/>
<feComposite in2="hardAlpha" operator="arithmetic" k2="-1" k3="1"/>
<feColorMatrix type="matrix" values="0 0 0 0 0.879605 0 0 0 0 1 0 0 0 0 0.55 0 0 0 0.5 0"/>
<feBlend mode="normal" in2="shape" result="effect1_innerShadow_174_153"/>
<feColorMatrix in="SourceAlpha" type="matrix" values="0 0 0 0 0 0 0 0 0 0 0 0 0 0 0 0 0 0 127 0" result="hardAlpha"/>
<feOffset dx="-2"/>
<feGaussianBlur stdDeviation="1"/>
<feComposite in2="hardAlpha" operator="arithmetic" k2="-1" k3="1"/>
<feColorMatrix type="matrix" values="0 0 0 0 0.0520833 0 0 0 0 0.145833 0 0 0 0 0 0 0 0 1 0"/>
<feBlend mode="normal" in2="effect1_innerShadow_174_153" result="effect2_innerShadow_174_153"/>
</filter>
<filter id="filter1_d_174_153" x="0.500366" y="0.402588" width="320" height="325" filterUnits="userSpaceOnUse" color-interpolation-filters="sRGB">
<feFlood flood-opacity="0" result="BackgroundImageFix"/>
<feColorMatrix in="SourceAlpha" type="matrix" values="0 0 0 0 0 0 0 0 0 0 0 0 0 0 0 0 0 0 127 0" result="hardAlpha"/>
<feMorphology radius="45" operator="dilate" in="SourceAlpha" result="effect1_dropShadow_174_153"/>
<feOffset dx="5" dy="5"/>
<feGaussianBlur stdDeviation="50"/>
<feComposite in2="hardAlpha" operator="out"/>
<feColorMatrix type="matrix" values="0 0 0 0 0.820333 0 0 0 0 1 0 0 0 0 0.591667 0 0 0 0.25 0"/>
<feBlend mode="normal" in2="BackgroundImageFix" result="effect1_dropShadow_174_153"/>
<feBlend mode="normal" in="SourceGraphic" in2="effect1_dropShadow_174_153" result="shape"/>
</filter>
</defs>
</svg>
