<svg width="320" height="325" viewBox="0 0 320 325" fill="none" xmlns="http://www.w3.org/2000/svg">
<g filter="url(#filter0_ii_174_113)">
<g filter="url(#filter1_d_174_113)">
<ellipse cx="155" cy="157.5" rx="15" ry="17.5" fill="#B4FD7A" fill-opacity="0.26" shape-rendering="crispEdges"/>
</g>
<path d="M177.752 133.469C187.477 144.995 184.956 162.98 172.119 173.638C159.287 184.292 140.996 183.587 131.273 172.06C121.545 160.534 124.066 142.549 136.899 131.894C149.734 121.236 168.026 121.942 177.752 133.469L177.752 133.469L177.752 133.469Z" fill="#94CB00"/>
<path d="M151.352 158.803C152.763 158.558 154.313 157.407 154.814 156.241C154.83 156.199 154.845 156.158 154.86 156.117C155.281 154.96 154.455 154.279 153.006 154.6C151.561 154.914 150.055 156.1 149.643 157.255C149.24 158.362 149.99 159.045 151.352 158.803Z" fill="#315E18"/>
<path d="M147.845 166.733C147.679 167.111 147.923 167.355 148.381 167.271C148.84 167.187 149.345 166.819 149.501 166.442C149.667 166.064 149.421 165.828 148.965 165.904C148.509 165.98 148.012 166.354 147.845 166.733Z" fill="#315E18"/>
<path d="M136.17 162.216C136.084 161.93 135.616 161.91 135.143 162.164C134.67 162.419 134.354 162.868 134.441 163.154C134.527 163.44 134.984 163.462 135.457 163.208C135.941 162.951 136.264 162.508 136.17 162.216C136.17 162.216 136.167 162.224 136.17 162.216Z" fill="#315E18"/>
<path d="M141.555 159.1C141.422 158.657 140.713 158.62 139.979 159.015C139.246 159.41 138.759 160.094 138.893 160.537C139.026 160.98 139.735 161.017 140.469 160.622C141.202 160.227 141.689 159.543 141.555 159.1Z" fill="#315E18"/>
<path d="M142.13 165.536C142.594 165.07 142.653 164.571 142.253 164.414C141.851 164.265 141.151 164.515 140.677 164.984C140.212 165.45 140.154 165.95 140.553 166.107C140.952 166.264 141.665 166.002 142.13 165.536Z" fill="#315E18"/>
<path d="M148.805 162.925C148.553 163.512 148.922 163.881 149.633 163.758C150.343 163.634 151.112 163.064 151.364 162.477C151.616 161.889 151.247 161.52 150.536 161.644C149.836 161.765 149.057 162.337 148.805 162.925Z" fill="#315E18"/>
<path d="M157.13 162.178C157.245 162.541 157.822 162.576 158.437 162.245C159.042 161.916 159.445 161.357 159.333 160.985C159.218 160.622 158.641 160.587 158.026 160.918C157.422 161.247 157.015 161.815 157.13 162.178Z" fill="#315E18"/>
<path d="M147.167 160.608C147.839 159.937 147.92 159.22 147.34 159.01C146.764 158.793 145.757 159.156 145.095 159.825C144.423 160.495 144.342 161.213 144.922 161.422C145.488 161.642 146.495 161.279 147.167 160.608Z" fill="#315E18"/>
<path d="M145.055 149.23C145.622 148.666 145.695 148.049 145.21 147.865C144.726 147.68 143.862 147.989 143.296 148.554C142.729 149.118 142.656 149.735 143.14 149.919C143.632 150.11 144.485 149.803 145.055 149.23Z" fill="#315E18"/>
<path d="M141.238 148.094C141.611 147.724 141.648 147.336 141.331 147.214C141.014 147.093 140.465 147.295 140.092 147.665C139.72 148.035 139.683 148.424 139.989 148.548C140.309 148.661 140.869 148.456 141.238 148.094Z" fill="#315E18"/>
<path d="M153.247 147.31C152.746 148.476 153.49 149.229 154.903 148.975C156.314 148.73 157.875 147.578 158.366 146.413C158.381 146.372 158.396 146.331 158.408 146.298C158.826 145.149 158 144.468 156.555 144.781C155.185 145.071 153.723 146.187 153.247 147.31Z" fill="#315E18"/>
<path d="M148.309 157.004C149.316 156.459 150.135 155.619 150.424 154.825C150.842 153.677 150.016 152.996 148.571 153.309C148.168 153.396 147.739 153.558 147.313 153.787C145.833 154.588 144.859 155.956 145.136 156.84C145.42 157.729 146.839 157.802 148.309 157.004Z" fill="#315E18"/>
<path d="M150.932 141.373C150.817 141.009 150.227 140.985 149.622 141.314C149.017 141.643 148.621 142.209 148.736 142.572C148.851 142.935 149.431 142.962 150.033 142.641C150.64 142.304 151.044 141.744 150.932 141.373Z" fill="#315E18"/>
<path d="M149.831 146.482C149.993 147.003 150.822 147.052 151.687 146.583C152.552 146.113 153.129 145.311 152.967 144.79C152.805 144.27 151.976 144.221 151.111 144.69C150.246 145.159 149.679 145.96 149.831 146.482Z" fill="#315E18"/>
<path d="M138.263 155.27C138.466 154.792 138.159 154.486 137.583 154.58C137.007 154.675 136.365 155.156 136.152 155.636C135.95 156.114 136.246 156.423 136.823 156.328C137.412 156.223 138.051 155.75 138.263 155.27Z" fill="#315E18"/>
<path d="M145.001 153.817C145.3 153.128 144.86 152.69 144.026 152.841C143.194 152.983 142.282 153.66 141.994 154.347C141.696 155.036 142.135 155.473 142.97 155.323C143.804 155.172 144.713 154.503 145.001 153.817Z" fill="#315E18"/>
<path d="M158.231 157.068C158.069 156.548 157.24 156.499 156.375 156.968C155.51 157.437 154.933 158.24 155.095 158.76C155.257 159.281 156.086 159.33 156.951 158.86C157.816 158.391 158.393 157.589 158.231 157.068Z" fill="#315E18"/>
<path d="M147.531 152.538C148.51 152.904 150.216 152.29 151.353 151.153C152.49 150.016 152.629 148.799 151.65 148.433C150.671 148.066 148.964 148.68 147.828 149.817C147.425 150.216 147.136 150.644 146.989 151.049C146.733 151.752 146.939 152.308 147.531 152.538Z" fill="#315E18"/>
<path d="M159.753 146.546C158.273 147.347 157.299 148.715 157.576 149.599C157.85 150.491 159.269 150.564 160.739 149.765C162.219 148.965 163.192 147.597 162.915 146.713C162.649 145.827 161.254 145.742 159.777 146.534C159.766 146.536 159.766 146.536 159.753 146.546Z" fill="#315E18"/>
<path d="M160.895 142.942C160.223 143.613 160.142 144.331 160.722 144.54C161.299 144.758 162.305 144.395 162.967 143.726C163.64 143.055 163.72 142.338 163.141 142.128C162.574 141.909 161.567 142.272 160.895 142.942Z" fill="#315E18"/>
<path d="M158.439 139.791C157.729 139.915 156.96 140.485 156.708 141.072C156.456 141.659 156.825 142.028 157.536 141.905C158.247 141.781 159.015 141.211 159.267 140.624C159.516 140.045 159.139 139.67 158.439 139.791Z" fill="#315E18"/>
<path d="M158.561 137.108C158.394 137.487 158.638 137.731 159.097 137.647C159.555 137.562 160.06 137.194 160.216 136.818C160.383 136.439 160.136 136.204 159.68 136.28C159.222 136.364 158.727 136.73 158.561 137.108Z" fill="#315E18"/>
<path d="M165.932 138.014C165.468 138.481 165.409 138.98 165.808 139.137C166.211 139.286 166.91 139.035 167.385 138.567C167.85 138.101 167.908 137.601 167.509 137.444C167.11 137.287 166.397 137.548 165.932 138.014Z" fill="#315E18"/>
<path d="M166.821 155.465C166.448 155.835 166.411 156.224 166.718 156.347C167.035 156.469 167.584 156.266 167.954 155.904C168.326 155.534 168.363 155.146 168.056 155.022C167.753 154.89 167.193 155.095 166.821 155.465Z" fill="#315E18"/>
<path d="M171.891 141.335C171.977 141.621 172.445 141.641 172.919 141.386C173.392 141.131 173.707 140.682 173.621 140.397C173.535 140.111 173.078 140.088 172.605 140.343C172.121 140.6 171.798 141.043 171.891 141.335C171.891 141.335 171.894 141.327 171.891 141.335Z" fill="#315E18"/>
<path d="M160.532 151.013C159.553 150.647 157.846 151.26 156.699 152.4C155.562 153.537 155.423 154.754 156.399 155.129C157.375 155.503 159.084 154.881 160.232 153.742C160.634 153.343 160.923 152.915 161.07 152.51C161.339 151.797 161.133 151.24 160.532 151.013Z" fill="#315E18"/>
<path d="M163.007 154.32C162.44 154.885 162.367 155.502 162.851 155.686C163.336 155.87 164.199 155.561 164.766 154.997C165.333 154.432 165.406 153.815 164.921 153.631C164.44 153.439 163.576 153.748 163.007 154.32Z" fill="#315E18"/>
<path d="M169.766 148.372C169.563 148.85 169.87 149.156 170.446 149.062C171.023 148.967 171.664 148.486 171.877 148.006C172.079 147.528 171.783 147.219 171.207 147.314C170.617 147.419 169.979 147.892 169.766 148.372Z" fill="#315E18"/>
<path d="M163.028 149.825C162.729 150.514 163.169 150.951 164.003 150.801C164.835 150.659 165.747 149.981 166.035 149.295C166.323 148.608 165.894 148.169 165.059 148.319C164.238 148.459 163.316 149.139 163.028 149.825Z" fill="#315E18"/>
<path d="M166.506 144.451C166.65 144.892 167.359 144.928 168.096 144.525C168.832 144.122 169.319 143.438 169.175 142.997C169.042 142.554 168.333 142.518 167.599 142.912C166.863 143.316 166.366 144.002 166.506 144.451Z" fill="#315E18"/>
</g>
<defs>
<filter id="filter0_ii_174_113" x="109.5" y="112.402" width="88.017" height="81.7285" filterUnits="userSpaceOnUse" color-interpolation-filters="sRGB">
<feFlood flood-opacity="0" result="BackgroundImageFix"/>
<feBlend mode="normal" in="SourceGraphic" in2="BackgroundImageFix" result="shape"/>
<feColorMatrix in="SourceAlpha" type="matrix" values="0 0 0 0 0 0 0 0 0 0 0 0 0 0 0 0 0 0 127 0" result="hardAlpha"/>
<feOffset dx="2" dy="-1"/>
<feGaussianBlur stdDeviation="1"/>
<feComposite in2="hardAlpha" operator="arithmetic" k2="-1" k3="1"/>
<feColorMatrix type="matrix" values="0 0 0 0 0.192157 0 0 0 0 0.368627 0 0 0 0 0.0941176 0 0 0 1 0"/>
<feBlend mode="normal" in2="shape" result="effect1_innerShadow_174_113"/>
<feColorMatrix in="SourceAlpha" type="matrix" values="0 0 0 0 0 0 0 0 0 0 0 0 0 0 0 0 0 0 127 0" result="hardAlpha"/>
<feOffset dx="-4" dy="2"/>
<feGaussianBlur stdDeviation="2"/>
<feComposite in2="hardAlpha" operator="arithmetic" k2="-1" k3="1"/>
<feColorMatrix type="matrix" values="0 0 0 0 0.682353 0 0 0 0 0.933333 0 0 0 0 0 0 0 0 1 0"/>
<feBlend mode="normal" in2="effect1_innerShadow_174_113" result="effect2_innerShadow_174_113"/>
</filter>
<filter id="filter1_d_174_113" x="0" y="0" width="320" height="325" filterUnits="userSpaceOnUse" color-interpolation-filters="sRGB">
<feFlood flood-opacity="0" result="BackgroundImageFix"/>
<feColorMatrix in="SourceAlpha" type="matrix" values="0 0 0 0 0 0 0 0 0 0 0 0 0 0 0 0 0 0 127 0" result="hardAlpha"/>
<feMorphology radius="45" operator="dilate" in="SourceAlpha" result="effect1_dropShadow_174_113"/>
<feOffset dx="5" dy="5"/>
<feGaussianBlur stdDeviation="50"/>
<feComposite in2="hardAlpha" operator="out"/>
<feColorMatrix type="matrix" values="0 0 0 0 0.820333 0 0 0 0 1 0 0 0 0 0.591667 0 0 0 0.25 0"/>
<feBlend mode="normal" in2="BackgroundImageFix" result="effect1_dropShadow_174_113"/>
<feBlend mode="normal" in="SourceGraphic" in2="effect1_dropShadow_174_113" result="shape"/>
</filter>
</defs>
</svg>
